<svg width="80" height="80" viewBox="0 0 80 80" fill="none" xmlns="http://www.w3.org/2000/svg">
<path d="M31.9419 56.7964C29.0433 56.7964 26.6851 59.1546 26.6851 62.0532C26.6851 64.9519 29.0433 67.3101 31.9419 67.3101C34.8406 67.3101 37.1988 64.9519 37.1988 62.0532C37.1987 59.1546 34.8404 56.7964 31.9419 56.7964ZM31.9419 64.3747C30.6617 64.3747 29.6202 63.3331 29.6202 62.053C29.6202 60.7728 30.6618 59.7313 31.9419 59.7313C33.222 59.7313 34.2636 60.7729 34.2636 62.053C34.2636 63.3333 33.222 64.3747 31.9419 64.3747Z" fill="#FD7669"/>
<path d="M53.8975 56.7964C50.9988 56.7964 48.6406 59.1546 48.6406 62.0532C48.6406 64.9519 50.9988 67.3101 53.8975 67.3101C56.7961 67.3101 59.1543 64.9519 59.1543 62.0532C59.1542 59.1546 56.796 56.7964 53.8975 56.7964ZM53.8975 64.3747C52.6173 64.3747 51.5758 63.3331 51.5758 62.053C51.5758 60.7728 52.6174 59.7313 53.8975 59.7313C55.1777 59.7313 56.2192 60.7729 56.2192 62.053C56.2192 63.3333 55.1776 64.3747 53.8975 64.3747Z" fill="#FD7669"/>
<path d="M58.7076 29.1191H28.8862C28.0756 29.1191 27.4186 29.7762 27.4186 30.5867C27.4186 31.3973 28.0757 32.0543 28.8862 32.0543H58.7076C59.5181 32.0543 60.1751 31.3973 60.1751 30.5867C60.1751 29.7761 59.5181 29.1191 58.7076 29.1191Z" fill="#FD7669"/>
<path d="M57.5632 36.7402H30.0313C29.2208 36.7402 28.5637 37.3973 28.5637 38.2078C28.5637 39.0184 29.2208 39.6754 30.0313 39.6754H57.5631C58.3737 39.6754 59.0307 39.0184 59.0307 38.2078C59.0307 37.3974 58.3737 36.7402 57.5632 36.7402Z" fill="#FD7669"/>
<path d="M70.3863 22.5805C69.8266 21.8936 68.9973 21.4997 68.1111 21.4997H17.1232L16.2 17.018C16.0072 16.0831 15.3696 15.2981 14.4939 14.9179L8.05229 12.1219C7.30863 11.7989 6.44438 12.1401 6.12182 12.8835C5.7989 13.6272 6.14015 14.4915 6.88345 14.8141L13.3251 17.6102L20.4262 52.0802C20.7059 53.4376 21.9149 54.423 23.301 54.423H63.7344C64.5449 54.423 65.202 53.7659 65.202 52.9554C65.202 52.1448 64.5449 51.4878 63.7344 51.4878H23.3011L22.4374 47.2948H64.0061C65.3921 47.2948 66.6012 46.3095 66.8808 44.952L70.9859 25.0267C71.1646 24.1591 70.9461 23.2673 70.3863 22.5805ZM64.0061 44.3599H21.8327L17.7279 24.4347L68.111 24.4349L64.0061 44.3599Z" fill="#FD7669"/>
</svg>

