<svg width="80" height="80" viewBox="0 0 80 80" fill="none" xmlns="http://www.w3.org/2000/svg">
<path fill-rule="evenodd" clip-rule="evenodd" d="M71.5243 28.0206L73.573 36.2154C76.7042 36.6921 79.1111 39.4024 79.111 42.6646V55.8775C79.111 56.5617 78.5563 57.1163 77.8722 57.1163H73.8235L73.8239 57.1343L73.8245 57.1536V57.1537C73.8251 57.1686 73.8257 57.1836 73.8257 57.1988C73.8257 61.5247 70.3063 65.044 65.9807 65.044C61.6551 65.044 58.1357 61.5247 58.1357 57.1988L58.136 57.1783L58.1368 57.1537L58.1375 57.1341L58.1379 57.1163H30.2218C30.222 57.1288 30.2224 57.1412 30.2229 57.1536L30.2236 57.1733C30.2238 57.1817 30.224 57.1903 30.224 57.1988C30.224 61.5247 26.7046 65.044 22.379 65.044C18.0534 65.044 14.534 61.5247 14.534 57.1988C14.534 57.1837 14.5346 57.1687 14.5351 57.1537C14.5356 57.1412 14.5361 57.1288 14.5362 57.1163H7.84513C6.4335 57.1163 5.28515 55.9679 5.28515 54.5563V51.831H1.23874C0.55455 51.831 0 51.2765 0 50.5923C0 49.9081 0.554705 49.3535 1.23874 49.3535H13.1301C13.8143 49.3535 14.3689 49.9081 14.3689 50.5923C14.3689 51.2765 13.8142 51.831 13.1301 51.831H7.76247V54.5563C7.76247 54.6018 7.7994 54.6388 7.84498 54.6388H14.9651C16.029 51.5665 18.9496 49.3535 22.379 49.3535C25.8085 49.3535 28.7289 51.5665 29.7929 54.6388H55.4929V45.3073C55.4929 44.6231 56.0476 44.0686 56.7316 44.0686C57.4158 44.0686 57.9704 44.6233 57.9704 45.3073V54.6391H58.5668C59.6306 51.5668 62.5512 49.3538 65.9807 49.3538C69.4101 49.3538 72.3306 51.5668 73.3946 54.6391H76.6335V49.1888H75.2296C73.0894 49.1888 71.3483 47.4477 71.3483 45.3075V42.6649C71.3483 41.9807 71.903 41.4262 72.5871 41.4262H76.4388C75.9144 39.7999 74.3876 38.6197 72.5895 38.6184L72.5861 38.6186L72.5846 38.6184L72.5829 38.6183H57.9707V40.0225C57.9707 40.7067 57.416 41.2613 56.7319 41.2613C56.0478 41.2613 55.4932 40.7066 55.4932 40.0225V17.56C55.4932 17.5145 55.4563 17.4775 55.4107 17.4775H7.84498C7.7994 17.4775 7.76247 17.5145 7.76247 17.56V40.0222C7.76247 40.7064 7.20776 41.261 6.52373 41.261C5.83954 41.261 5.28499 40.7063 5.28499 40.0222V17.56C5.28499 16.1484 6.43334 15 7.84498 15H55.4108C56.8225 15 57.9708 16.1484 57.9708 17.56V20.2854H67.3022C70.1708 20.2854 72.5047 22.6192 72.5047 25.488V26.8093C72.5047 27.4046 72.0844 27.9016 71.5243 28.0206ZM67.3022 22.7628H57.9708V25.5705H70.0274V25.488C70.0274 23.9853 68.8049 22.7628 67.3022 22.7628ZM57.9708 28.0479V36.1409H71.0008L68.9776 28.0479H57.9708ZM17.0114 57.1991C17.0114 60.1591 19.4193 62.5669 22.379 62.5669C25.3387 62.5669 27.7467 60.1591 27.7467 57.1991C27.7467 54.2392 25.3387 51.8313 22.379 51.8313C19.4193 51.8313 17.0114 54.2392 17.0114 57.1991ZM60.6133 57.1991C60.6133 60.1591 63.0213 62.5669 65.981 62.5669C68.9407 62.5669 71.3486 60.1591 71.3486 57.1991C71.3486 54.2392 68.9407 51.8313 65.981 51.8313C63.0213 51.8313 60.6133 54.2392 60.6133 57.1991ZM75.2299 46.7113H76.6336V43.9034H73.826V45.3073C73.826 46.0815 74.4558 46.7113 75.2299 46.7113ZM19.8193 57.1939C19.8193 55.7849 20.9677 54.6387 22.3793 54.6387C23.791 54.6387 24.9393 55.7849 24.9393 57.1939C24.9393 58.603 23.791 59.7492 22.3793 59.7492C20.9677 59.7492 19.8193 58.603 19.8193 57.1939ZM65.9809 54.6387C64.5693 54.6387 63.4209 55.7849 63.4209 57.1939C63.4209 58.603 64.5693 59.7492 65.9809 59.7492C67.3925 59.7492 68.5409 58.603 68.5409 57.1939C68.5409 55.7849 67.3925 54.6387 65.9809 54.6387ZM32.9497 49.3579H51.4475C52.1316 49.3579 52.6862 49.9097 52.6862 50.5905C52.6862 51.2714 52.1315 51.8232 51.4475 51.8232H32.9497C32.2655 51.8232 31.7109 51.2714 31.7109 50.5905C31.7109 49.9097 32.2656 49.3579 32.9497 49.3579ZM19.7373 44.0703H3.88205C3.19802 44.0703 2.64331 44.6221 2.64331 45.3029C2.64331 45.9838 3.19786 46.5356 3.88205 46.5356H19.7373C20.4214 46.5356 20.9761 45.9838 20.9761 45.3029C20.9761 44.6221 20.4214 44.0703 19.7373 44.0703ZM41.3222 27.2545C41.8058 26.7707 42.5903 26.7707 43.0739 27.2543C43.5575 27.7381 43.5575 28.5224 43.0737 29.0063L31.1824 40.8986C30.9407 41.1406 30.6235 41.2614 30.3066 41.2614C29.9897 41.2614 29.6726 41.1406 29.4308 40.8986L22.8244 34.2917C22.3406 33.8079 22.3406 33.0237 22.8244 32.5399C23.308 32.056 24.0923 32.056 24.5761 32.5399L30.3066 38.2707L41.3222 27.2545Z" fill="#FD7669"/>
</svg>

