<svg width="80" height="80" viewBox="0 0 80 80" fill="none" xmlns="http://www.w3.org/2000/svg">
<path d="M69.4334 18.1486L69.3434 18.1329C59.0672 16.331 49.3477 12.651 40.455 7.19519C40.03 6.9345 39.4943 6.93489 39.0699 7.19664C30.2391 12.641 20.5805 16.3098 10.3624 18.1015L10.0936 18.1486C9.46123 18.2595 9 18.8086 9 19.4507V36.7545C9 45.5679 12.0419 54.204 17.5656 61.0719C23.0891 67.9397 30.8718 72.763 39.4801 74.6531C39.5737 74.6734 39.6686 74.6838 39.7637 74.6838C39.8591 74.6838 39.9544 74.6734 40.048 74.6529C48.657 72.7585 56.44 67.9314 61.9628 61.0609C67.4858 54.1905 70.5275 45.5521 70.5275 36.7369V19.4507C70.5275 18.8084 70.066 18.2592 69.4334 18.1486ZM67.8837 36.7369C67.8837 53.4922 56.0758 68.2782 39.7635 72.0071C23.4516 68.2862 11.6439 53.5078 11.6439 36.7545V20.5568C21.6224 18.7061 31.076 15.1133 39.7656 9.86923C48.463 15.0938 57.9135 18.685 67.8837 20.5548V36.7369Z" fill="#FD7669"/>
<path d="M40.2096 16.6891C40.4312 16.6891 40.6557 16.6333 40.862 16.516L40.8755 16.5085C40.876 16.5081 40.8867 16.5022 40.8873 16.5019C41.5234 16.1446 41.7447 15.342 41.3879 14.7056C41.0308 14.0691 40.2206 13.8453 39.5841 14.2014L39.555 14.2178C38.9203 14.5787 38.6985 15.3858 39.0594 16.0204C39.303 16.4488 39.7497 16.6891 40.2096 16.6891Z" fill="#FD7669"/>
<path d="M33.9128 16.8111C28.2084 19.5318 22.1844 21.6341 16.0083 23.0592C15.4084 23.1976 14.9835 23.7317 14.9835 24.3473V36.7361C14.9835 38.1681 15.0802 39.6141 15.2704 41.0336C15.3592 41.6976 15.9267 42.18 16.5788 42.18C16.6373 42.18 16.6965 42.1762 16.7561 42.1681C17.4798 42.0711 17.9877 41.4059 17.8906 40.6822C17.7159 39.3788 17.6273 38.051 17.6273 36.7361V25.3926C23.6322 23.9323 29.4891 21.8503 35.0508 19.1975C35.71 18.8833 35.9893 18.0942 35.6751 17.4352C35.3606 16.7762 34.5714 16.497 33.9128 16.8111Z" fill="#FD7669"/>
<path d="M63.2207 23.0273C62.4908 23.0273 61.8988 23.6192 61.8988 24.3493V36.7381C61.8988 48.491 54.9547 59.2744 44.2078 64.2102C43.5444 64.5149 43.2535 65.2997 43.5582 65.9632C43.7809 66.448 44.2599 66.7338 44.7604 66.7338C44.945 66.7338 45.1326 66.6949 45.3112 66.6128C50.9779 64.0103 55.7879 59.844 59.2218 54.5644C62.7028 49.2124 64.5427 43.0481 64.5427 36.7381V24.3493C64.5427 23.6193 63.9507 23.0273 63.2207 23.0273Z" fill="#FD7669"/>
<path d="M39.4744 65.9137L39.4241 65.9271C38.7184 66.1144 38.2982 66.8382 38.4855 67.5438C38.6425 68.1361 39.1773 68.5271 39.7622 68.5271C39.8745 68.5271 39.9887 68.5128 40.1022 68.4825L40.1526 68.4692C40.8583 68.2819 41.2785 67.5581 41.0912 66.8524C40.9039 66.1464 40.1797 65.7264 39.4744 65.9137Z" fill="#FD7669"/>
<path d="M57.4915 41.0878C58.3518 39.6895 58.136 37.9083 56.9663 36.7562L55.5928 35.4032C55.4133 35.2264 55.3207 34.9811 55.3386 34.73L55.4762 32.7972C55.5933 31.1521 54.5723 29.6705 52.9932 29.1944L51.1742 28.646C50.9316 28.5729 50.7346 28.3976 50.6338 28.1651L49.8725 26.4086C49.2223 24.9094 47.5863 24.0501 45.9837 24.3644L44.138 24.7266C43.8885 24.7755 43.6311 24.712 43.4328 24.552L41.9639 23.3659C40.6886 22.3365 38.8377 22.3362 37.5626 23.3659L36.0934 24.5521C35.8952 24.7122 35.6378 24.7755 35.3882 24.7266L33.5425 24.3645C31.9393 24.0497 30.3036 24.9094 29.6539 26.4084L28.8921 28.1654C28.7912 28.3976 28.5943 28.5729 28.3518 28.646L26.5332 29.1944C24.9541 29.6704 23.933 31.1519 24.0501 32.7972L24.1878 34.7299C24.2056 34.9811 24.1129 35.2264 23.9337 35.403L22.56 36.7562C21.3904 37.9084 21.1744 39.6896 22.0348 41.0878L23.0505 42.7383C23.1823 42.9523 23.2136 43.2125 23.1368 43.4516L22.5423 45.2998C22.0391 46.8653 22.6752 48.5449 24.089 49.3844L25.7352 50.3618C25.9524 50.4909 26.1013 50.7075 26.1437 50.9563L26.4676 52.8567C26.7457 54.488 28.0943 55.6848 29.7471 55.7669L31.6327 55.8606C31.8865 55.8733 32.1204 55.9965 32.2743 56.1989L33.4238 57.7113C34.1007 58.6019 35.1528 59.0911 36.2248 59.0911C36.7225 59.0911 37.2246 58.9856 37.695 58.7655L39.3996 57.9695C39.6306 57.8617 39.8956 57.8618 40.1266 57.9695L41.831 58.7655C43.3153 59.4584 45.1117 59.0151 46.1025 57.7109L47.2517 56.1988C47.4056 55.9964 47.6394 55.873 47.8932 55.8605L49.7793 55.7668C51.4321 55.6847 52.7806 54.4879 53.0588 52.8566L53.3826 50.9563C53.4251 50.7074 53.5739 50.4907 53.7911 50.3618L55.4373 49.3844C56.8512 48.5449 57.4873 46.8653 56.9839 45.2997L56.3897 43.4519C56.3127 43.2125 56.3441 42.9524 56.4757 42.7384L57.4915 41.0878ZM55.2398 39.7024L54.2239 41.3531C53.6872 42.2258 53.5591 43.2857 53.8727 44.2613L54.4669 46.1093C54.5905 46.4933 54.4344 46.9053 54.0875 47.1113L52.4413 48.0887C51.5561 48.6142 50.9494 49.4975 50.7764 50.5123L50.4525 52.4126C50.3842 52.8126 50.0534 53.1062 49.6481 53.1263L47.7621 53.22C46.727 53.2716 45.7736 53.7743 45.1467 54.5993L43.9976 56.1117C43.7545 56.4314 43.314 56.5404 42.9499 56.3704L41.2455 55.5744C40.3034 55.1345 39.2231 55.1345 38.2809 55.5744L36.5764 56.3704C36.2121 56.5402 35.7717 56.4313 35.5288 56.1117L34.3791 54.5989C33.7521 53.7741 32.7989 53.2714 31.764 53.22L29.8784 53.1263C29.473 53.1062 29.1423 52.8126 29.074 52.4126L28.7501 50.5121C28.577 49.4974 27.9703 48.6142 27.0852 48.0886L25.439 47.1112C25.0921 46.9052 24.936 46.4931 25.0595 46.1093L25.6539 44.2609C25.9674 43.2856 25.8394 42.2256 25.3024 41.3529L24.2866 39.7023C24.0757 39.3594 24.1287 38.9225 24.4155 38.6398L25.7893 37.2867C26.5203 36.5664 26.898 35.5662 26.825 34.5423L26.6874 32.6096C26.6587 32.206 26.9091 31.8426 27.2965 31.7259L29.1151 31.1776C30.1041 30.8793 30.9071 30.1647 31.3178 29.2171L32.0797 27.4602C32.217 27.1435 32.5338 26.9431 32.8703 26.9431C32.9244 26.9431 32.979 26.9483 33.0335 26.959L34.879 27.321C35.8987 27.5213 36.9463 27.2618 37.7543 26.6092L39.2235 25.4231C39.5361 25.1706 39.9902 25.1706 40.3031 25.4231L41.7721 26.6092C42.58 27.2617 43.628 27.5209 44.6473 27.3212L46.4929 26.959C46.8856 26.8816 47.2874 27.0927 47.4468 27.4604L48.2081 29.2169C48.619 30.1647 49.4221 30.8795 50.411 31.1776L52.23 31.7259C52.6172 31.8426 52.8677 32.2062 52.839 32.6096L52.7014 34.5425C52.6285 35.5662 53.0061 36.5664 53.7373 37.2868L55.1109 38.64C55.3978 38.9227 55.451 39.3595 55.2398 39.7024Z" fill="#FD7669"/>
<path d="M43.2057 34.0861C42.5701 33.7271 41.7637 33.9514 41.4046 34.5874L34.2966 47.1783C33.9377 47.8142 34.1621 48.6205 34.7979 48.9794C35.0032 49.0953 35.2264 49.1504 35.4466 49.1504C35.908 49.1504 36.356 48.9085 36.5989 48.4781L43.7069 35.8872C44.0659 35.2513 43.8415 34.4451 43.2057 34.0861Z" fill="#FD7669"/>
<path d="M44.3827 41.9683C42.1959 41.9683 40.4169 43.7473 40.4169 45.9341C40.4169 48.1209 42.1959 49.9 44.3827 49.9C46.5695 49.9 48.3486 48.1209 48.3486 45.9341C48.3486 43.7473 46.5695 41.9683 44.3827 41.9683ZM44.3827 47.2561C43.6538 47.2561 43.0608 46.663 43.0608 45.9341C43.0608 45.2052 43.6538 44.6122 44.3827 44.6122C45.1116 44.6122 45.7047 45.2052 45.7047 45.9341C45.7047 46.663 45.1116 47.2561 44.3827 47.2561Z" fill="#FD7669"/>
<path d="M35.145 31.7783C32.9583 31.7783 31.1792 33.5574 31.1792 35.7442C31.1792 37.9309 32.9583 39.71 35.145 39.71C37.3318 39.71 39.1109 37.9309 39.1109 35.7442C39.1109 33.5573 37.3318 31.7783 35.145 31.7783ZM35.145 37.0661C34.4161 37.0661 33.8231 36.4731 33.8231 35.7442C33.8231 35.0152 34.4161 34.4222 35.145 34.4222C35.874 34.4222 36.467 35.0152 36.467 35.7442C36.467 36.4731 35.874 37.0661 35.145 37.0661Z" fill="#FD7669"/>
</svg>
