<svg width="80" height="80" viewBox="0 0 80 80" fill="none" xmlns="http://www.w3.org/2000/svg">
<path d="M65.3188 22.1917H51.1205C51.4216 21.9408 51.7142 21.6744 51.9959 21.3927C53.7507 19.6379 54.9381 17.5011 55.3393 15.3754C55.7756 13.0629 55.2488 11.0224 53.8562 9.62998C52.7903 8.56354 51.3312 8 49.6366 8C47.0988 8 44.2791 9.3047 42.0935 11.4901C41.214 12.37 40.4974 13.3218 39.9437 14.2991C39.3831 13.302 38.6643 12.3497 37.8048 11.4901C35.6191 9.30488 32.7993 8 30.2617 8C28.5671 8 27.1079 8.5639 26.0417 9.6298C23.2656 12.4064 24.083 17.5734 27.9022 21.3926C28.1842 21.6746 28.4779 21.9403 28.7793 22.1915H14.5798C11.503 22.1915 9 24.6945 9 27.7713V29.2245C9 32.3011 11.503 34.8043 14.5798 34.8043H15.4004V65.7091C15.4004 68.7857 17.9034 71.2889 20.9802 71.2889H58.9179C61.9948 71.2889 64.498 68.7859 64.498 65.7091V34.8041H65.319C68.3956 34.8041 70.8988 32.3011 70.8988 29.2243V27.7711C70.8986 24.6947 68.3956 22.1917 65.3188 22.1917ZM43.9967 13.3932C45.6886 11.7013 47.7971 10.6912 49.6368 10.6912C50.3099 10.6912 51.2581 10.8373 51.9537 11.5328C52.6979 12.2771 52.9611 13.4644 52.6949 14.8762C52.3931 16.4752 51.4691 18.1134 50.093 19.4895C48.4015 21.1814 46.2934 22.1917 44.4537 22.1917C43.7802 22.1917 42.832 22.0456 42.1364 21.35C40.484 19.698 41.3358 16.0541 43.9967 13.3932ZM29.8054 19.4895C27.1447 16.8292 26.2928 13.1851 27.9447 11.5328C28.6403 10.8373 29.5885 10.6912 30.2617 10.6912C32.1014 10.6912 34.2098 11.7015 35.9019 13.3932C37.2776 14.7689 38.2016 16.4072 38.5034 18.0065C38.7697 19.4183 38.5066 20.6055 37.7619 21.3502C37.0667 22.0454 36.1181 22.1915 35.4449 22.1915C33.6054 22.1917 31.4973 21.1817 29.8054 19.4895ZM34.2624 68.5975H20.98C19.3874 68.5975 18.0915 67.3016 18.0915 65.7089V34.8041H34.2622V68.5975H34.2624ZM34.2624 32.1129H14.5798C12.9871 32.1129 11.6912 30.817 11.6912 29.2243V27.7711C11.6912 26.1784 12.9871 24.8825 14.5798 24.8825H34.2624V32.1129ZM42.945 68.5975H36.9534V24.8829H42.945V68.5975ZM61.8066 65.7089C61.8066 67.3016 60.5107 68.5975 58.9177 68.5975H45.6362V34.8041H61.8066V65.7089ZM68.2074 29.2245C68.2074 30.8172 66.9115 32.1131 65.3188 32.1131H45.6362V24.8829H65.3188C66.9115 24.8829 68.2074 26.1788 68.2074 27.7714V29.2245Z" fill="#FD7669"/>
</svg>

