<svg width="80" height="80" viewBox="0 0 80 80" fill="none" xmlns="http://www.w3.org/2000/svg">
<path d="M71.4201 14H8.77489C6.76162 14 5 15.6174 5 17.7325V32.9436C5 33.6901 5.62915 34.3122 6.38413 34.3122C7.13911 34.3122 7.76825 33.6901 7.76825 32.9436V17.7325C7.76825 17.2348 8.27157 16.7372 8.77489 16.7372H71.4201C71.9235 16.7372 72.4268 17.2348 72.4268 17.7325V56.5826C72.4268 57.0803 71.9235 57.578 71.4201 57.578H49.0314C49.0314 57.3291 49.0314 57.0803 49.0314 56.8315C49.0314 56.5826 49.0314 56.3338 49.0314 56.085H64.4995C65.2545 56.085 65.8836 55.4629 65.8836 54.7164C65.8836 52.7258 67.5194 51.1083 69.5327 51.1083C70.2877 51.1083 70.9168 50.4863 70.9168 49.7398V34.6854C70.9168 33.9389 70.2877 33.3169 69.5327 33.3169C68.7777 33.3169 68.1486 33.9389 68.1486 34.6854V48.4956C65.7578 48.9933 63.8704 50.9839 63.2412 53.3478H48.2764C47.0181 50.113 43.7466 47.9979 40.0975 47.9979C36.4484 47.9979 33.1769 50.113 31.7927 53.4722H16.828C16.3247 51.1083 14.4372 49.2421 11.9206 48.62V25.8195C14.4372 25.1974 16.3247 23.3312 16.9538 20.9673H63.367C63.8703 23.3312 65.7578 25.1974 68.2744 25.8195V27.0637C68.2744 27.8102 68.9035 28.4323 69.6585 28.4323C70.4135 28.4323 70.9168 27.8102 70.9168 27.0637V24.5754C70.9168 23.8289 70.2877 23.2068 69.5327 23.2068C67.5194 23.2068 65.8836 21.5894 65.8836 19.5987C65.8836 18.8522 65.2545 18.2301 64.4995 18.2301H15.6955C14.9405 18.2301 14.3114 18.8522 14.3114 19.5987C14.3114 21.5894 12.6756 23.2068 10.6623 23.2068C9.90736 23.2068 9.27821 23.8289 9.27821 24.5754V49.7398C9.27821 50.4863 9.90736 51.1083 10.6623 51.1083C12.6756 51.1083 14.3114 52.7258 14.3114 54.7164C14.3114 55.4629 14.9405 56.085 15.6955 56.085H31.1636C31.1636 56.3338 31.1636 56.5826 31.1636 56.8315C31.1636 57.0803 31.1636 57.3291 31.1636 57.578H8.77489C8.27157 57.578 7.76825 57.0803 7.76825 56.5826V37.0493C7.76825 36.3028 7.13911 35.6808 6.38413 35.6808C5.62915 35.6808 5 36.3028 5 37.0493V56.5826C5 58.5733 6.63579 60.3151 8.77489 60.3151H31.7927C32.0444 60.9372 32.4219 61.5593 32.9252 62.1814V71.5126C32.9252 72.0102 33.1769 72.3835 33.5544 72.6323C33.9319 72.8811 34.4352 72.8811 34.8127 72.7567L40.0975 70.6417L45.3824 72.7567C45.5082 72.8811 45.7598 72.8811 45.8857 72.8811C46.1373 72.8811 46.389 72.7567 46.6407 72.6323C47.0182 72.3835 47.2698 72.0102 47.2698 71.5126V69.0242C47.2698 68.2777 46.6407 67.6557 45.8857 67.6557C45.1307 67.6557 44.5016 68.2777 44.5016 69.0242V69.5219L40.6008 67.9045C40.2233 67.7801 39.8459 67.7801 39.5942 67.9045L35.6935 69.5219V64.6697C38.4617 66.1627 41.8591 66.1627 44.6274 64.6697V64.9185C44.6274 65.665 45.2565 66.2871 46.0115 66.2871C46.7665 66.2871 47.3956 65.665 47.3956 64.9185V62.3058C47.7731 61.6837 48.1506 61.0616 48.5281 60.4395H71.546C73.5592 60.4395 75.3209 58.8221 75.3209 56.7071V17.7325C75.195 15.7418 73.4334 14 71.4201 14ZM40.0975 63.0523C36.7001 63.0523 33.806 60.3151 33.806 56.8315C33.806 53.3478 36.5743 50.6107 40.0975 50.6107C43.4949 50.6107 46.389 53.3478 46.389 56.8315C46.389 60.3151 43.4949 63.0523 40.0975 63.0523Z" fill="#FD7669"/>
<path d="M47.8991 29.1942C48.4024 29.1942 48.7799 28.8209 48.7799 28.3232C48.7799 27.8254 48.4024 27.4521 47.8991 27.4521H32.2962C31.7929 27.4521 31.4154 27.8254 31.4154 28.3232C31.4154 28.8209 31.7929 29.1942 32.2962 29.1942H47.8991Z" fill="#FD7669"/>
<path d="M47.8989 29.5683H32.296C31.541 29.5683 30.9119 28.9462 30.9119 28.1997C30.9119 27.4532 31.541 26.8311 32.296 26.8311H48.0247C48.7797 26.8311 49.4088 27.4532 49.4088 28.1997C49.4088 28.9462 48.6539 29.5683 47.8989 29.5683ZM32.296 27.8264C32.0443 27.8264 31.9185 28.0753 31.9185 28.1997C31.9185 28.3241 32.1702 28.5729 32.296 28.5729H48.0247C48.2764 28.5729 48.4022 28.3241 48.4022 28.1997C48.4022 28.0753 48.1505 27.8264 48.0247 27.8264H32.296Z" fill="#FD7669"/>
<path d="M53.9385 34.1787H26.2559C25.7526 34.1787 25.3751 34.552 25.3751 35.0497C25.3751 35.5475 25.7526 35.9208 26.2559 35.9208H53.9385C54.4418 35.9208 54.8193 35.5475 54.8193 35.0497C54.8193 34.552 54.4418 34.1787 53.9385 34.1787Z" fill="#FD7669"/>
<path d="M53.9384 36.4188H26.2558C25.5009 36.4188 24.8717 35.7968 24.8717 35.0505C24.8717 34.3041 25.5009 33.6821 26.2558 33.6821H53.9384C54.6934 33.6821 55.3225 34.3041 55.3225 35.0505C55.3225 35.7968 54.6934 36.4188 53.9384 36.4188ZM26.2558 34.6773C26.0042 34.6773 25.8783 34.9261 25.8783 35.0505C25.8783 35.1749 26.13 35.4237 26.2558 35.4237H53.9384C54.19 35.4237 54.3159 35.1749 54.3159 35.0505C54.3159 34.9261 54.19 34.6773 53.9384 34.6773H26.2558Z" fill="#FD7669"/>
<path d="M53.9385 41.0298H26.2559C25.7526 41.0298 25.3751 41.4031 25.3751 41.9008C25.3751 42.3985 25.7526 42.7718 26.2559 42.7718H53.9385C54.4418 42.7718 54.8193 42.3985 54.8193 41.9008C54.8193 41.4031 54.4418 41.0298 53.9385 41.0298Z" fill="#FD7669"/>
<path d="M53.9384 43.2697H26.2558C25.5009 43.2697 24.8717 42.6476 24.8717 41.9012C24.8717 41.1548 25.5009 40.5327 26.2558 40.5327H53.9384C54.6934 40.5327 55.3225 41.1548 55.3225 41.9012C55.3225 42.6476 54.6934 43.2697 53.9384 43.2697ZM26.2558 41.528C26.0042 41.528 25.8783 41.7768 25.8783 41.9012C25.8783 42.0256 26.13 42.2744 26.2558 42.2744H53.9384C54.19 42.2744 54.3159 42.0256 54.3159 41.9012C54.3159 41.7768 54.0642 41.528 53.9384 41.528H26.2558Z" fill="#FD7669"/>
<path d="M40.2231 61.9326C37.329 61.9326 35.0641 59.6931 34.9382 56.956C34.9382 54.0944 37.2032 51.8549 39.9714 51.7305C42.8655 51.7305 45.1304 53.97 45.2563 56.7071C45.3821 59.5687 42.9913 61.9326 40.2231 61.9326ZM40.0973 54.4676C38.7131 54.4676 37.7065 55.5874 37.7065 56.956C37.7065 58.3246 38.839 59.3199 40.2231 59.3199C41.6072 59.3199 42.6138 58.2001 42.6138 56.8316C42.488 55.463 41.3556 54.3432 40.0973 54.4676Z" fill="#FD7669"/>
</svg>

