<svg width="40" height="40" viewBox="0 0 40 40" fill="none" xmlns="http://www.w3.org/2000/svg"><circle cx="20" cy="20" r="18.222" fill="#fff"/><path d="M25.961 10.642H14.039a3.455 3.455 0 0 0-3.45 3.451v11.922a3.455 3.455 0 0 0 3.45 3.452h11.922a3.455 3.455 0 0 0 3.452-3.452V14.093a3.455 3.455 0 0 0-3.452-3.45zm-5.96 15.61a6.204 6.204 0 0 1-6.198-6.198A6.204 6.204 0 0 1 20 13.858a6.204 6.204 0 0 1 6.197 6.196A6.205 6.205 0 0 1 20 26.251zm6.395-11.113a1.468 1.468 0 0 1-1.466-1.466 1.467 1.467 0 0 1 2.933 0c0 .808-.658 1.466-1.467 1.466z" fill="#FD7669"/><path d="M20 16.476a3.583 3.583 0 0 0-3.579 3.577A3.583 3.583 0 0 0 20 23.633a3.582 3.582 0 0 0 3.578-3.58A3.582 3.582 0 0 0 20 16.476z" fill="#FD7669"/><path d="M20 0C8.955 0 0 8.955 0 20s8.955 20 20 20 20-8.955 20-20S31.045 0 20 0zm12.03 26.015a6.076 6.076 0 0 1-6.07 6.07H14.04a6.076 6.076 0 0 1-6.07-6.07V14.093a6.077 6.077 0 0 1 6.07-6.07h11.92a6.076 6.076 0 0 1 6.07 6.07v11.922z" fill="#FD7669"/></svg>
