<svg width="21" height="21" viewBox="0 0 21 21" fill="none" xmlns="http://www.w3.org/2000/svg"><path d="M18.19 19.83l1.441-1.442c.527-.525.765-1.538.53-2.245l-.101-.308c-.237-.707-1.02-1.445-1.74-1.644l-2.66-.727c-.722-.195-1.75.068-2.28.598l-.962.963a10.222 10.222 0 0 1-7.187-7.19l.962-.962c.527-.528.79-1.556.595-2.279l-.725-2.66C5.868 1.211 5.125.43 4.417.192l-.303-.1c-.71-.238-1.722.002-2.25.532L.423 2.065c-.257.255-.422.986-.422.989A17.03 17.03 0 0 0 4.98 15.27a17.009 17.009 0 0 0 12.174 4.977c.024 0 .778-.16 1.035-.417z" fill="#FD7669"/></svg>
