<svg width="45" height="45" viewBox="0 0 45 45" fill="none" xmlns="http://www.w3.org/2000/svg"><circle cx="22.5" cy="22.5" r="22.5" fill="#FD7669"/><path d="M7.495 22.508l6.451 2.37 2.498 7.907a.764.764 0 0 0 1.206.357l3.596-2.886a1.086 1.086 0 0 1 1.308-.036l6.487 4.636c.446.32 1.079.079 1.19-.452l4.752-22.502c.123-.58-.456-1.064-1.018-.85L7.487 21.107a.745.745 0 0 0 .008 1.4zm8.546 1.109l12.61-7.646c.226-.137.459.165.264.343L18.51 25.836a2.113 2.113 0 0 0-.668 1.271l-.355 2.586c-.047.345-.54.38-.636.046l-1.364-4.716a1.241 1.241 0 0 1 .555-1.406z" fill="#fff"/></svg>
