<svg width="40" height="40" viewBox="0 0 40 40" fill="none" xmlns="http://www.w3.org/2000/svg"><path d="M20 40c11.046 0 20-8.954 20-20S31.046 0 20 0 0 8.954 0 20s8.954 20 20 20z" fill="#FD7669"/><path fill-rule="evenodd" clip-rule="evenodd" d="M19.245 28.77h1.57s.473-.052.716-.313c.222-.24.215-.69.215-.69s-.03-2.106.947-2.416c.964-.306 2.201 2.035 3.513 2.936.992.68 1.745.532 1.745.532l3.508-.05s1.834-.112.964-1.555c-.071-.118-.506-1.067-2.607-3.017-2.2-2.041-1.905-1.711.744-5.242 1.613-2.15 2.258-3.462 2.057-4.025-.192-.535-1.379-.394-1.379-.394l-3.948.025s-.293-.04-.51.09c-.213.127-.349.424-.349.424s-.625 1.664-1.459 3.079c-1.758 2.986-2.46 3.143-2.748 2.958-.669-.432-.502-1.736-.502-2.662 0-2.894.439-4.1-.855-4.413-.429-.104-.745-.172-1.842-.183-1.41-.015-2.602.004-3.277.335-.45.22-.796.71-.585.739.261.034.852.159 1.166.586.404.55.39 1.787.39 1.787s.232 3.406-.543 3.829c-.532.29-1.262-.302-2.83-3.011-.803-1.388-1.41-2.922-1.41-2.922s-.117-.286-.325-.44c-.253-.185-.607-.245-.607-.245l-3.752.025s-.564.016-.77.26c-.184.218-.015.67-.015.67s2.938 6.872 6.264 10.336c3.05 3.175 6.514 2.967 6.514 2.967z" fill="#fff"/></svg>
